<?xml version="1.0" standalone="no"?>
<!DOCTYPE svg PUBLIC "-//W3C//DTD SVG 20010904//EN"
 "http://www.w3.org/TR/2001/REC-SVG-20010904/DTD/svg10.dtd">
<svg version="1.0" xmlns="http://www.w3.org/2000/svg"
 width="412.000000pt" height="412.000000pt" viewBox="0 0 412.000000 412.000000"
 preserveAspectRatio="xMidYMid meet">
<metadata>
Created by potrace 1.16, written by Peter Selinger 2001-2019
</metadata>
<g transform="translate(0.000000,412.000000) scale(0.100000,-0.100000)"
fill="#574fb4" stroke="none">
<path d="M1800 4080 c-746 -101 -1380 -608 -1645 -1315 -140 -374 -164 -810
-66 -1196 170 -672 675 -1219 1327 -1437 115 -39 294 -78 417 -93 132 -15 454
-7 577 16 845 153 1508 817 1655 1657 24 136 38 344 25 382 -24 73 -110 107
-179 72 -46 -24 -58 -63 -70 -223 -6 -78 -20 -184 -30 -235 -144 -696 -701
-1256 -1391 -1398 -393 -81 -790 -28 -1155 155 -161 81 -287 170 -423 300
-310 295 -486 636 -548 1055 -22 156 -15 441 16 585 50 235 137 443 273 648
111 168 322 380 487 490 197 130 416 224 628 266 127 26 321 45 377 37 136
-21 209 -182 131 -294 -43 -63 -86 -81 -226 -92 -346 -28 -631 -160 -876 -404
-272 -272 -407 -595 -407 -976 0 -165 17 -278 63 -421 68 -207 171 -377 327
-539 163 -170 340 -283 553 -354 153 -51 269 -69 445 -69 228 0 391 37 600
138 148 71 265 157 388 284 241 250 363 526 392 888 13 161 -32 289 -134 387
-71 67 -139 101 -238 118 -186 31 -383 -73 -464 -247 -26 -55 -32 -82 -39
-185 -10 -142 -34 -224 -92 -310 -75 -114 -205 -197 -342 -221 -283 -49 -558
152 -597 437 -22 154 25 295 139 415 90 96 188 144 326 161 78 9 104 16 127
35 58 49 59 131 3 184 -21 19 -38 24 -98 27 -98 5 -214 -24 -336 -85 -127 -63
-255 -188 -317 -309 -66 -127 -87 -216 -87 -364 0 -114 3 -133 33 -219 87
-256 276 -435 530 -503 101 -27 277 -29 376 -4 153 39 305 132 402 248 108
127 167 282 179 465 6 89 11 110 34 147 86 136 298 100 341 -57 13 -47 6 -152
-18 -272 -79 -406 -399 -754 -798 -870 -387 -112 -798 -11 -1092 268 -407 387
-476 987 -167 1454 69 105 212 250 310 315 163 109 340 171 532 188 65 6 139
15 165 20 196 39 346 223 347 425 1 167 -101 324 -257 398 -66 31 -72 32 -218
34 -82 1 -179 -3 -215 -7z"/>
</g>
</svg>